<?xml version="1.0" encoding="UTF-8"?>
<svg xmlns="http://www.w3.org/2000/svg" width="18" height="18" viewBox="0 0 18 18"><path d="M17 14c0 .44-.45 1-1 1H9a1 1 0 0 1-1-1H2c-.54 0-1-.56-1-1 0-2.63 3-4 3-4s.23-.4 0-1c-.84-.62-1.06-.59-1-3s1.37-3 2.5-3 2.44.58 2.5 3-.16 2.38-1 3c-.23.59 0 1 0 1s1.55.71 2.42 2.09c.78-.72 1.58-1.1 1.58-1.1s.23-.4 0-1c-.84-.61-1.06-.58-1-3s1.37-3 2.5-3 2.44.59 2.5 3c.05 2.42-.16 2.39-1 3-.23.6 0 1 0 1s3 1.38 3 4"></path></svg>
                                            