<?xml version="1.0" encoding="UTF-8"?>
<svg xmlns="http://www.w3.org/2000/svg" width="18" height="18" viewBox="0 0 18 18"><path d="m4 15-3 3V4c0-1.1.9-2 2-2h12c1.09 0 2 .91 2 2v9c0 1.09-.91 2-2 2zm7.75-3.97c.72-.83.98-1.86.98-2.94 0-1.65-.7-3.22-2.3-3.83a4.4 4.4 0 0 0-3.02 0 3.8 3.8 0 0 0-2.32 3.83q0 1.93 1.03 3a3.8 3.8 0 0 0 2.85 1.07q.94 0 1.71-.34.97.66 1.06.7.34.2.7.3l.59-1.13a5 5 0 0 1-1.28-.66m-1.27-.9a5 5 0 0 0-1.5-.8l-.45.9q.5.18.98.5-.3.1-.65.11-.92 0-1.52-.68c-.86-1-.86-3.12 0-4.11.8-.9 2.35-.9 3.15 0 .9 1.01.86 3.03-.01 4.08"></path></svg>